<svg width="35" height="25" viewBox="0 0 35 25" fill="none" xmlns="http://www.w3.org/2000/svg">
<path d="M18.7866 13.6338L13.3956 22.8667L8.00473 13.6338H18.7866ZM20.2308 12.8086H6.55469L13.3956 24.4998L20.2308 12.8086Z" fill="white"/>
<path d="M28.1589 2.15038L33.5497 11.3833H22.7679L28.1589 2.15038ZM28.1589 0.5L21.3179 12.1912H34.9998L28.1589 0.5Z" fill="white"/>
<path d="M0 0.5L5.7359 10.8409L12.0038 0.759661L0 0.5Z" fill="#0466C8"/>
<path d="M13.3954 1.40576L19.412 11.6889H7.36719L13.3954 1.40576Z" fill="#0466C8"/>
<path d="M20.9617 13.9341L26.9841 24.5H14.6528L20.7746 13.9341H20.9617Z" fill="#0466C8"/>
<path d="M22.2651 13.2935L28.1589 23.6978L34.1345 13.2935H22.2651Z" fill="#0466C8"/>
</svg>
