<svg width="36" height="25" viewBox="0 0 36 25" fill="none" xmlns="http://www.w3.org/2000/svg">
<path d="M19.2866 13.6341L13.8956 22.8669L8.50473 13.6341H19.2866ZM20.7308 12.8088H7.05469L13.8956 24.5L20.7308 12.8088Z" fill="#263238"/>
<path d="M28.6593 2.15038L34.0502 11.3833H23.2684L28.6593 2.15038ZM28.6593 0.5L21.8184 12.1912H35.5003L28.6593 0.5Z" fill="#263238"/>
<path d="M0.5 0.5L6.2359 10.8409L12.5038 0.759661L0.5 0.5Z" fill="white"/>
<path d="M13.8954 1.40576L19.912 11.6889H7.86719L13.8954 1.40576Z" fill="white"/>
<path d="M21.4612 13.9341L27.4836 24.5H15.1523L21.2741 13.9341H21.4612Z" fill="white"/>
<path d="M22.7656 13.2935L28.6594 23.6978L34.635 13.2935H22.7656Z" fill="white"/>
</svg>
