<svg xmlns="http://www.w3.org/2000/svg" width="36" height="25" viewBox="0 0 36 25" fill="none">
  <path d="M19.2866 13.642L13.8956 22.8749L8.50473 13.642H19.2866ZM20.7308 12.8168H7.05469L13.8956 24.508L20.7308 12.8168Z" fill="#263238"/>
  <path d="M28.6589 2.15844L34.0497 11.3913H23.2679L28.6589 2.15844ZM28.6589 0.508057L21.8179 12.1992H35.4998L28.6589 0.508057Z" fill="#263238"/>
  <path d="M0.5 0.508057L6.2359 10.8489L12.5038 0.767718L0.5 0.508057Z" fill="#0466C8"/>
  <path d="M13.8954 1.41394L19.912 11.6971H7.86719L13.8954 1.41394Z" fill="#0466C8"/>
  <path d="M21.4617 13.9421L27.4841 24.5081H15.1528L21.2746 13.9421H21.4617Z" fill="#0466C8"/>
  <path d="M22.7651 13.3015L28.6589 23.7058L34.6345 13.3015H22.7651Z" fill="#0466C8"/>
</svg>