<svg width="18" height="22" viewBox="0 0 18 22" fill="none" xmlns="http://www.w3.org/2000/svg">
<path d="M1.00001 13.9139H0.250013H1.00001ZM3.73293 17.1122L3.83594 16.3693H3.83594L3.73293 17.1122ZM13.9193 17.1122L13.8163 16.3693H13.8163L13.9193 17.1122ZM1.46648 12.216L0.822328 11.8319L1.46648 12.216ZM3.48915 7.11576C3.48915 4.16824 5.87859 1.77881 8.82611 1.77881V0.278809C5.05016 0.278809 1.98915 3.33982 1.98915 7.11576H3.48915ZM3.48915 9.20829V7.11576H1.98915V9.20829H3.48915ZM1.75001 13.9139C1.75001 13.4325 1.88172 12.984 2.11063 12.6002L0.822328 11.8319C0.458714 12.4416 0.250014 13.1546 0.250013 13.9139H1.75001ZM3.83594 16.3693C2.6363 16.203 1.75001 15.1601 1.75001 13.9139H0.250013C0.250013 15.8736 1.65413 17.5812 3.62991 17.8551L3.83594 16.3693ZM8.8261 16.8008C7.33412 16.8008 5.40653 16.5871 3.83594 16.3693L3.62991 17.8551C5.21269 18.0746 7.22539 18.3008 8.8261 18.3008V16.8008ZM13.8163 16.3693C12.2457 16.5871 10.3181 16.8008 8.8261 16.8008V18.3008C10.4268 18.3008 12.4395 18.0746 14.0223 17.8551L13.8163 16.3693ZM15.9022 13.9139C15.9022 15.1601 15.0159 16.203 13.8163 16.3693L14.0223 17.8551C15.9981 17.5812 17.4022 15.8736 17.4022 13.9139H15.9022ZM15.5416 12.6002C15.7705 12.984 15.9022 13.4325 15.9022 13.9139H17.4022C17.4022 13.1546 17.1935 12.4416 16.8299 11.8319L15.5416 12.6002ZM14.1631 7.11577V9.20831H15.6631V7.11577H14.1631ZM8.82611 1.77881C11.7736 1.77881 14.1631 4.16825 14.1631 7.11577H15.6631C15.6631 3.33982 12.6021 0.278809 8.82611 0.278809V1.77881ZM16.8299 11.8319C16.521 11.3139 16.2404 10.8989 16.0091 10.4355C15.7876 9.99169 15.6631 9.59581 15.6631 9.20831H14.1631C14.1631 9.92116 14.3931 10.5566 14.667 11.1054C14.9311 11.6344 15.2869 12.1731 15.5416 12.6002L16.8299 11.8319ZM1.98915 9.20829C1.98915 9.59579 1.86463 9.99168 1.64312 10.4354C1.41177 10.8989 1.13122 11.3139 0.822328 11.8319L2.11063 12.6002C2.36533 12.1731 2.72111 11.6344 2.98521 11.1054C3.25913 10.5566 3.48915 9.92114 3.48915 9.20829H1.98915Z" fill="#89939E"/>
<path d="M11 19.8628C10.5326 20.5657 9.73347 21.029 8.82609 21.029C7.91871 21.029 7.11954 20.5657 6.65218 19.8628" stroke="#89939E" stroke-width="1.5" stroke-linecap="round"/>
</svg>
