<svg xmlns="http://www.w3.org/2000/svg" width="74" height="24" viewBox="0 0 74 24" fill="none">
  <path fill-rule="evenodd" clip-rule="evenodd" d="M13.6234 23.2971C14.5556 22.3598 14.5556 20.8402 13.6234 19.9029L5.76295 12L13.6234 4.09706C14.5556 3.1598 14.5556 1.6402 13.6234 0.702945C12.6912 -0.234315 11.1798 -0.234315 10.2475 0.702945L0.699158 10.3029C-0.233063 11.2402 -0.233063 12.7598 0.699158 13.6971L10.2475 23.2971C11.1798 24.2343 12.6912 24.2343 13.6234 23.2971Z" fill="#89939E"/>
  <path fill-rule="evenodd" clip-rule="evenodd" d="M61.3653 23.2971C62.2976 22.3598 62.2976 20.8402 61.3654 19.9029L53.5049 12L61.3654 4.09706C62.2976 3.1598 62.2976 1.6402 61.3654 0.702945C60.4331 -0.234315 58.9217 -0.234315 57.9895 0.702945L48.4411 10.3029C47.5089 11.2402 47.5089 12.7598 48.4411 13.6971L57.9895 23.2971C58.9217 24.2343 60.4331 24.2343 61.3653 23.2971Z" fill="#89939E"/>
  <path fill-rule="evenodd" clip-rule="evenodd" d="M73.3008 23.2971C74.2331 22.3598 74.2331 20.8402 73.3008 19.9029L65.4404 12L73.3008 4.09706C74.2331 3.1598 74.2331 1.6402 73.3008 0.702945C72.3686 -0.234315 70.8572 -0.234315 69.925 0.702945L60.3766 10.3029C59.4444 11.2402 59.4444 12.7598 60.3766 13.6971L69.925 23.2971C70.8572 24.2343 72.3686 24.2343 73.3008 23.2971Z" fill="#89939E"/>
</svg>