<svg xmlns="http://www.w3.org/2000/svg" width="21" height="22" viewBox="0 0 21 22" fill="none">
  <path d="M1 9.95452C1 8.73033 1.56058 7.57355 2.52142 6.81499L8.02142 2.47288C9.47466 1.32559 11.5253 1.32559 12.9786 2.47288L18.4786 6.81499C19.4394 7.57355 20 8.73033 20 9.95452V16.5161C20 18.7253 18.2091 20.5161 16 20.5161H14.5C13.9477 20.5161 13.5 20.0684 13.5 19.5161V16.5161C13.5 15.4115 12.6046 14.5161 11.5 14.5161H9.5C8.39543 14.5161 7.5 15.4115 7.5 16.5161V19.5161C7.5 20.0684 7.05228 20.5161 6.5 20.5161H5C2.79086 20.5161 1 18.7253 1 16.5161L1 9.95452Z" stroke="#0466C8" stroke-width="1.5"/>
</svg>
