<svg width="25" height="24" viewBox="0 0 25 24" fill="none" xmlns="http://www.w3.org/2000/svg">
<path d="M18.5 14L19.7929 12.7071C20.1834 12.3166 20.1834 11.6834 19.7929 11.2929L18.5 10" stroke="#717171" stroke-width="1.5" stroke-linecap="round" stroke-linejoin="round"/>
<path d="M19.5 12L13.5 12M4.5 17.2663V7.26633M16.5 17.2663C16.5 18.3709 15.6046 19.2663 14.5 19.2663H10.5M16.5 7.26633C16.5 6.16176 15.6046 5.26633 14.5 5.26633H10.5M5.3906 19.8601L7.3906 21.1934C8.71971 22.0795 10.5 21.1267 10.5 19.5293V5.00336C10.5 3.40597 8.71971 2.45319 7.3906 3.33926L5.3906 4.6726C4.8342 5.04353 4.5 5.66799 4.5 6.3367V18.196C4.5 18.8647 4.8342 19.4891 5.3906 19.8601Z" stroke="#717171" stroke-width="1.5" stroke-linecap="round"/>
</svg>
