<svg width="65" height="57" viewBox="0 0 65 57" fill="none" xmlns="http://www.w3.org/2000/svg">
<g id="Icon">
<path id="Rectangle 157" d="M65 39C65 48.9411 56.9411 57 47 57L20 57C17.2386 57 15 54.7614 15 52L15 18C15 12.4772 19.4772 8 25 8L60 8C62.7614 8 65 10.2386 65 13L65 39Z" fill="#E8ECF5"/>
<path id="Vector" d="M35.4377 16.0546L39.6883 18.3539L40.5781 18.8539C42.4739 19.919 42.4739 22.665 40.5781 23.7301L28.5049 30.5132C25.7049 32.0864 22.2951 32.0864 19.4951 30.5132L7.42185 23.7301C5.52605 22.665 5.52605 19.919 7.42185 18.8539L8.3117 18.3539L12.3267 16.0546M36.3622 26.2922L40.2258 28.2371C42.2184 29.2401 42.2824 32.0795 40.337 33.1725L28.5049 39.8201C25.7049 41.3933 22.2951 41.3933 19.4951 39.8201L7.8356 33.2695C5.85679 32.1577 5.96583 29.2555 8.02239 28.2974L12.3267 26.2922M28.5049 20.6223L40.5781 13.8392C42.4739 12.7741 42.474 10.0281 40.5782 8.96298L28.5049 2.17986C25.7049 0.606715 22.2951 0.606712 19.4951 2.17986L7.42185 8.96298C5.52605 10.0281 5.52605 12.7741 7.42185 13.8392L19.4951 20.6223C22.2951 22.1955 25.7049 22.1955 28.5049 20.6223Z" stroke="#001233" stroke-width="1.5"/>
</g>
</svg>
