<svg width="20" height="19" viewBox="0 0 20 19" fill="none" xmlns="http://www.w3.org/2000/svg">
<path d="M19 9H15M17 11V7M4 5C4 7.20914 5.79086 9 8 9C10.2091 9 12 7.20914 12 5C12 2.79086 10.2091 1 8 1C5.79086 1 4 2.79086 4 5ZM11.8184 18.0455L12.7728 18.1818C13.9483 18.3498 15 17.4376 15 16.2502V14.9347C15 14.0743 14.4591 13.3068 13.6489 13.0175C9.99596 11.7128 6.00404 11.7128 2.35109 13.0175C1.54085 13.3068 1 14.0743 1 14.9347V16.2502C1 17.4376 2.0517 18.3498 3.22721 18.1818L4.18162 18.0455C6.71435 17.6837 9.28565 17.6837 11.8184 18.0455Z" stroke="white" stroke-width="1.5" stroke-linecap="round"/>
</svg>
