<svg xmlns="http://www.w3.org/2000/svg" width="74" height="24" viewBox="0 0 74 24" fill="none">
  <path fill-rule="evenodd" clip-rule="evenodd" d="M60.3766 23.2971C59.4444 22.3598 59.4444 20.8402 60.3766 19.9029L68.237 12L60.3766 4.09706C59.4444 3.1598 59.4444 1.6402 60.3766 0.702945C61.3088 -0.234315 62.8202 -0.234315 63.7524 0.702945L73.3008 10.3029C74.2331 11.2402 74.2331 12.7598 73.3008 13.6971L63.7524 23.2971C62.8202 24.2343 61.3088 24.2343 60.3766 23.2971Z" fill="#89939E"/>
  <path fill-rule="evenodd" clip-rule="evenodd" d="M12.6346 23.2971C11.7024 22.3598 11.7024 20.8402 12.6346 19.9029L20.4951 12L12.6346 4.09706C11.7024 3.1598 11.7024 1.6402 12.6346 0.702945C13.5669 -0.234315 15.0783 -0.234315 16.0105 0.702945L25.5589 10.3029C26.4911 11.2402 26.4911 12.7598 25.5589 13.6971L16.0105 23.2971C15.0783 24.2343 13.5669 24.2343 12.6346 23.2971Z" fill="#89939E"/>
  <path fill-rule="evenodd" clip-rule="evenodd" d="M0.699166 23.2971C-0.233054 22.3598 -0.233054 20.8402 0.699165 19.9029L8.55962 12L0.699165 4.09706C-0.233055 3.1598 -0.233055 1.6402 0.699164 0.702945C1.63138 -0.234315 3.14281 -0.234315 4.07503 0.702945L13.6234 10.3029C14.5556 11.2402 14.5556 12.7598 13.6234 13.6971L4.07503 23.2971C3.14281 24.2343 1.63138 24.2343 0.699166 23.2971Z" fill="#89939E"/>
</svg>