<svg width="19" height="19" viewBox="0 0 19 19" fill="none" xmlns="http://www.w3.org/2000/svg">
<path d="M1 3.5C1 2.11929 2.11929 1 3.5 1H5.5C6.88071 1 8 2.11929 8 3.5V5.5C8 6.88071 6.88071 8 5.5 8H3.5C2.11929 8 1 6.88071 1 5.5V3.5Z" stroke="white" stroke-width="1.5"/>
<path d="M1 13.5C1 12.1193 2.11929 11 3.5 11H5.5C6.88071 11 8 12.1193 8 13.5V15.5C8 16.8807 6.88071 18 5.5 18H3.5C2.11929 18 1 16.8807 1 15.5V13.5Z" stroke="white" stroke-width="1.5"/>
<path d="M11 3.5C11 2.11929 12.1193 1 13.5 1H15.5C16.8807 1 18 2.11929 18 3.5V5.5C18 6.88071 16.8807 8 15.5 8H13.5C12.1193 8 11 6.88071 11 5.5V3.5Z" stroke="white" stroke-width="1.5"/>
<path d="M11 13.5C11 12.1193 12.1193 11 13.5 11H15.5C16.8807 11 18 12.1193 18 13.5V15.5C18 16.8807 16.8807 18 15.5 18H13.5C12.1193 18 11 16.8807 11 15.5V13.5Z" stroke="white" stroke-width="1.5"/>
</svg>
