<svg width="65" height="56" viewBox="0 0 65 56" fill="none" xmlns="http://www.w3.org/2000/svg">
<path d="M65 38C65 47.9411 56.9411 56 47 56L20 56C17.2386 56 15 53.7614 15 51L15 17C15 11.4772 19.4772 7 25 7L60 7C62.7614 7 65 9.23858 65 12L65 38Z" fill="#E8ECF5"/>
<path d="M6 5C6 3.61929 7.11929 2.5 8.5 2.5H17.7059C19.0866 2.5 20.2059 3.61929 20.2059 5V14.2059C20.2059 15.5866 19.0866 16.7059 17.7059 16.7059H8.5C7.11929 16.7059 6 15.5866 6 14.2059V5Z" stroke="#001233" stroke-width="1.5"/>
<path d="M6 25.2942C6 23.9134 7.11929 22.7942 8.5 22.7942H17.7059C19.0866 22.7942 20.2059 23.9134 20.2059 25.2942V34.5C20.2059 35.8807 19.0866 37 17.7059 37H8.5C7.11929 37 6 35.8807 6 34.5V25.2942Z" stroke="#001233" stroke-width="1.5"/>
<path d="M26.2942 5C26.2942 3.61929 27.4134 2.5 28.7942 2.5H38C39.3807 2.5 40.5 3.61929 40.5 5V14.2059C40.5 15.5866 39.3807 16.7059 38 16.7059H28.7942C27.4134 16.7059 26.2942 15.5866 26.2942 14.2059V5Z" stroke="#001233" stroke-width="1.5"/>
<path d="M26.2942 25.2942C26.2942 23.9134 27.4134 22.7942 28.7942 22.7942H38C39.3807 22.7942 40.5 23.9134 40.5 25.2942V34.5C40.5 35.8807 39.3807 37 38 37H28.7942C27.4134 37 26.2942 35.8807 26.2942 34.5V25.2942Z" stroke="#001233" stroke-width="1.5"/>
</svg>
