<svg width="28" height="26" viewBox="0 0 28 26" fill="none" xmlns="http://www.w3.org/2000/svg">
<path fill-rule="evenodd" clip-rule="evenodd" d="M26 12.5288C26 18.6039 20.6274 23.5288 14 23.5288C7.37258 23.5288 2 18.6039 2 12.5288C2 6.45368 7.37258 1.52881 14 1.52881C20.6274 1.52881 26 6.45368 26 12.5288ZM14 8.40381C13.4467 8.40381 12.9614 8.67773 12.6998 9.09231C12.285 9.74964 11.3674 9.97426 10.6503 9.59402C9.93319 9.21377 9.68814 8.37264 10.103 7.71531C10.8788 6.48593 12.3325 5.65381 14 5.65381C16.4853 5.65381 18.5 7.50063 18.5 9.77881C18.5 11.5749 17.2478 13.1028 15.5 13.6691V13.9038C15.5 14.6632 14.8284 15.2788 14 15.2788C13.1716 15.2788 12.5 14.6632 12.5 13.9038L12.5 12.5288C12.5 11.7694 13.1716 11.1538 14 11.1538C14.8284 11.1538 15.5 10.5382 15.5 9.77881C15.5 9.01942 14.8284 8.40381 14 8.40381ZM14 19.4038C14.8284 19.4038 15.5 18.7882 15.5 18.0288C15.5 17.2694 14.8284 16.6538 14 16.6538C13.1716 16.6538 12.5 17.2694 12.5 18.0288C12.5 18.7882 13.1716 19.4038 14 19.4038Z" fill="#89939E"/>
</svg>
