<svg width="52" height="52" viewBox="0 0 52 52" fill="none" xmlns="http://www.w3.org/2000/svg">
<path d="M51 24.2534H39.8889M45.4444 30.0667V18.44M9.33333 12.6267C9.33333 19.0479 14.3079 24.2534 20.4444 24.2534C26.5809 24.2534 31.5556 19.0479 31.5556 12.6267C31.5556 6.20544 26.5809 1 20.4444 1C14.3079 1 9.33333 6.20544 9.33333 12.6267ZM31.051 50.5456L33.7022 50.9419C36.9675 51.43 39.8889 48.7788 39.8889 45.3273V41.5035C39.8889 39.0027 38.3865 36.7719 36.1359 35.9308C25.9888 32.1387 14.9001 32.1387 4.75303 35.9308C2.50237 36.7719 1 39.0027 1 41.5035V45.3273C1 48.7788 3.9214 51.43 7.18668 50.9419L9.83784 50.5456C16.8732 49.4939 24.0157 49.4939 31.051 50.5456Z" stroke="white" stroke-width="1.5" stroke-linecap="round"/>
</svg>
