<svg width="52" height="52" viewBox="0 0 52 52" fill="none" xmlns="http://www.w3.org/2000/svg">
<path d="M1 8.35294C1 4.29202 4.29202 1 8.35294 1H14.2353C18.2962 1 21.5882 4.29202 21.5882 8.35294V14.2353C21.5882 18.2962 18.2962 21.5882 14.2353 21.5882H8.35294C4.29202 21.5882 1 18.2962 1 14.2353V8.35294Z" stroke="white" stroke-width="1.5"/>
<path d="M1 37.7647C1 33.7038 4.29202 30.4118 8.35294 30.4118H14.2353C18.2962 30.4118 21.5882 33.7038 21.5882 37.7647V43.6471C21.5882 47.708 18.2962 51 14.2353 51H8.35294C4.29202 51 1 47.708 1 43.6471V37.7647Z" stroke="white" stroke-width="1.5"/>
<path d="M30.4118 8.35294C30.4118 4.29202 33.7038 1 37.7647 1H43.6471C47.708 1 51 4.29202 51 8.35294V14.2353C51 18.2962 47.708 21.5882 43.6471 21.5882H37.7647C33.7038 21.5882 30.4118 18.2962 30.4118 14.2353V8.35294Z" stroke="white" stroke-width="1.5"/>
<path d="M30.4118 37.7647C30.4118 33.7038 33.7038 30.4118 37.7647 30.4118H43.6471C47.708 30.4118 51 33.7038 51 37.7647V43.6471C51 47.708 47.708 51 43.6471 51H37.7647C33.7038 51 30.4118 47.708 30.4118 43.6471V37.7647Z" stroke="white" stroke-width="1.5"/>
</svg>
