<svg width="44" height="40" viewBox="0 0 44 40" fill="none" xmlns="http://www.w3.org/2000/svg">
<path d="M26.167 38.75H22.0003C17.398 38.75 13.667 35.019 13.667 30.4167V9.58333C13.667 4.98096 17.398 1.25 22.0003 1.25H34.5003C39.1027 1.25 42.8337 4.98096 42.8337 9.58333V24.1667M1.16699 9.58333H7.41699M22.0003 9.58333H34.5003M22.0003 17.9167H34.5003M22.0003 26.25H28.2503M30.3337 34.5833L33.9854 37.5047C34.8559 38.2012 36.1205 38.0888 36.8547 37.2498L42.8337 30.4167M4.29199 38.75L5.75033 36.8056C6.83218 35.3631 7.41699 33.6086 7.41699 31.8056V4.375C7.41699 2.64911 6.01788 1.25 4.29199 1.25C2.5661 1.25 1.16699 2.64911 1.16699 4.375V31.8056C1.16699 33.6086 1.75181 35.3631 2.83366 36.8056L4.29199 38.75Z" stroke="white" stroke-width="1.5" stroke-linecap="round" stroke-linejoin="round"/>
</svg>
