<svg width="24" height="20" viewBox="0 0 24 20" fill="none" xmlns="http://www.w3.org/2000/svg">
<path d="M1 2.5C1 1.67157 1.67157 1 2.5 1C3.32843 1 4 1.67157 4 2.5V15.6667C4 16.5321 3.71929 17.3743 3.2 18.0667L2.5 19L1.8 18.0667C1.28071 17.3743 1 16.5321 1 15.6667V2.5Z" fill="white"/>
<path d="M8 4.6C8 2.61177 9.67893 1 11.75 1H19.25C21.3211 1 23 2.61177 23 4.6V15.4C23 17.3882 21.3211 19 19.25 19H11.75C9.67893 19 8 17.3882 8 15.4V4.6Z" fill="white"/>
<path d="M2.5 19L1.9 19.45C2.04164 19.6389 2.26393 19.75 2.5 19.75C2.73607 19.75 2.95836 19.6389 3.1 19.45L2.5 19ZM1.8 18.0667L1.2 18.5167L1.2 18.5167L1.8 18.0667ZM3.2 18.0667L3.8 18.5167L3.8 18.5167L3.2 18.0667ZM1 4.25C0.585786 4.25 0.25 4.58579 0.25 5C0.25 5.41421 0.585786 5.75 1 5.75V4.25ZM4 5.75C4.41421 5.75 4.75 5.41421 4.75 5C4.75 4.58579 4.41421 4.25 4 4.25V5.75ZM11.75 4.75C11.3358 4.75 11 5.08579 11 5.5C11 5.91421 11.3358 6.25 11.75 6.25V4.75ZM19.25 6.25C19.6642 6.25 20 5.91421 20 5.5C20 5.08579 19.6642 4.75 19.25 4.75V6.25ZM11.75 9.25C11.3358 9.25 11 9.58579 11 10C11 10.4142 11.3358 10.75 11.75 10.75V9.25ZM19.25 10.75C19.6642 10.75 20 10.4142 20 10C20 9.58579 19.6642 9.25 19.25 9.25V10.75ZM11.75 13.75C11.3358 13.75 11 14.0858 11 14.5C11 14.9142 11.3358 15.25 11.75 15.25V13.75ZM15.5 15.25C15.9142 15.25 16.25 14.9142 16.25 14.5C16.25 14.0858 15.9142 13.75 15.5 13.75V15.25ZM3.25 2.5V15.6667H4.75V2.5H3.25ZM1.75 15.6667V2.5H0.25V15.6667H1.75ZM2.6 17.6167L1.9 18.55L3.1 19.45L3.8 18.5167L2.6 17.6167ZM3.1 18.55L2.4 17.6167L1.2 18.5167L1.9 19.45L3.1 18.55ZM0.25 15.6667C0.25 16.6944 0.583345 17.6945 1.2 18.5167L2.4 17.6167C1.97808 17.0541 1.75 16.3699 1.75 15.6667H0.25ZM3.25 15.6667C3.25 16.3699 3.02192 17.0541 2.6 17.6167L3.8 18.5167C4.41666 17.6945 4.75 16.6944 4.75 15.6667H3.25ZM2.5 1.75C2.91421 1.75 3.25 2.08579 3.25 2.5H4.75C4.75 1.25736 3.74264 0.25 2.5 0.25V1.75ZM2.5 0.25C1.25736 0.25 0.25 1.25736 0.25 2.5H1.75C1.75 2.08579 2.08579 1.75 2.5 1.75V0.25ZM1 5.75H4V4.25H1V5.75ZM11.75 1.75H19.25V0.25H11.75V1.75ZM22.25 4.6V15.4H23.75V4.6H22.25ZM19.25 18.25H11.75V19.75H19.25V18.25ZM8.75 15.4V4.6H7.25V15.4H8.75ZM11.75 18.25C10.064 18.25 8.75 16.9455 8.75 15.4H7.25C7.25 17.831 9.29387 19.75 11.75 19.75V18.25ZM22.25 15.4C22.25 16.9455 20.936 18.25 19.25 18.25V19.75C21.7061 19.75 23.75 17.831 23.75 15.4H22.25ZM19.25 1.75C20.936 1.75 22.25 3.05455 22.25 4.6H23.75C23.75 2.169 21.7061 0.25 19.25 0.25V1.75ZM11.75 0.25C9.29387 0.25 7.25 2.169 7.25 4.6H8.75C8.75 3.05455 10.064 1.75 11.75 1.75V0.25ZM11.75 6.25H19.25V4.75H11.75V6.25ZM11.75 10.75H19.25V9.25H11.75V10.75ZM11.75 15.25H15.5V13.75H11.75V15.25Z" fill="white"/>
</svg>
