<svg width="65" height="56" viewBox="0 0 65 56" fill="none" xmlns="http://www.w3.org/2000/svg">
<g id="Icon">
<path id="Rectangle 157" d="M65 38C65 47.9411 56.9411 56 47 56L20 56C17.2386 56 15 53.7614 15 51L15 17C15 11.4772 19.4772 7 25 7L60 7C62.7614 7 65 9.23858 65 12L65 38Z" fill="#E8ECF5"/>
<path id="Vector" d="M15.25 10.8125H29.75M15.25 19.875H29.75M15.25 28.9375H22.5M12 38H33C35.2091 38 37 36.2091 37 34V5.75C37 3.54086 35.2091 1.75 33 1.75H12C9.79086 1.75 8 3.54086 8 5.75V34C8 36.2091 9.79086 38 12 38Z" stroke="#001233" stroke-width="1.5" stroke-linecap="round"/>
</g>
</svg>
